<mxfile host="app.diagrams.net" agent="Mozilla/5.0 (Macintosh; Intel Mac OS X 10_15_7) AppleWebKit/537.36 (KHTML, like Gecko) Chrome/131.0.0.0 Safari/537.36" version="24.8.9">
  <diagram name="ページ1" id="Qkq4fJl-uf4colLAxOC4">
    <mxGraphModel dx="2486" dy="1473" grid="0" gridSize="10" guides="1" tooltips="1" connect="1" arrows="1" fold="1" page="1" pageScale="1" pageWidth="827" pageHeight="1169" math="0" shadow="0">
      <root>
        <mxCell id="0" />
        <mxCell id="1" parent="0" />
        <mxCell id="NpPCWZVfHVP0Qki3NAHJ-1" value="VPC" style="points=[[0,0],[0.25,0],[0.5,0],[0.75,0],[1,0],[1,0.25],[1,0.5],[1,0.75],[1,1],[0.75,1],[0.5,1],[0.25,1],[0,1],[0,0.75],[0,0.5],[0,0.25]];outlineConnect=0;gradientColor=none;html=1;whiteSpace=wrap;fontSize=12;fontStyle=0;container=1;pointerEvents=0;collapsible=0;recursiveResize=0;shape=mxgraph.aws4.group;grIcon=mxgraph.aws4.group_vpc;strokeColor=#248814;fillColor=none;verticalAlign=top;align=left;spacingLeft=30;fontColor=#AAB7B8;dashed=0;" parent="1" vertex="1">
          <mxGeometry x="74" y="391" width="681" height="635" as="geometry" />
        </mxCell>
        <mxCell id="NpPCWZVfHVP0Qki3NAHJ-4" value="" style="sketch=0;outlineConnect=0;fontColor=#232F3E;gradientColor=none;fillColor=#4D27AA;strokeColor=none;dashed=0;verticalLabelPosition=bottom;verticalAlign=top;align=center;html=1;fontSize=12;fontStyle=0;aspect=fixed;pointerEvents=1;shape=mxgraph.aws4.internet_gateway;" parent="1" vertex="1">
          <mxGeometry x="369.5" y="361" width="49" height="49" as="geometry" />
        </mxCell>
        <mxCell id="NpPCWZVfHVP0Qki3NAHJ-11" value="" style="sketch=0;outlineConnect=0;fontColor=#232F3E;gradientColor=none;fillColor=#232F3D;strokeColor=none;dashed=0;verticalLabelPosition=bottom;verticalAlign=top;align=center;html=1;fontSize=12;fontStyle=0;aspect=fixed;pointerEvents=1;shape=mxgraph.aws4.internet_alt2;" parent="1" vertex="1">
          <mxGeometry x="355" y="41" width="78" height="78" as="geometry" />
        </mxCell>
        <mxCell id="NpPCWZVfHVP0Qki3NAHJ-12" value="" style="edgeStyle=orthogonalEdgeStyle;html=1;endArrow=block;elbow=vertical;startArrow=block;startFill=1;endFill=1;strokeColor=#545B64;rounded=0;strokeWidth=3;" parent="1" edge="1">
          <mxGeometry width="100" relative="1" as="geometry">
            <mxPoint x="394" y="131" as="sourcePoint" />
            <mxPoint x="394" y="351" as="targetPoint" />
          </mxGeometry>
        </mxCell>
        <mxCell id="NpPCWZVfHVP0Qki3NAHJ-13" value="AWS Cloud" style="points=[[0,0],[0.25,0],[0.5,0],[0.75,0],[1,0],[1,0.25],[1,0.5],[1,0.75],[1,1],[0.75,1],[0.5,1],[0.25,1],[0,1],[0,0.75],[0,0.5],[0,0.25]];outlineConnect=0;gradientColor=none;html=1;whiteSpace=wrap;fontSize=12;fontStyle=0;container=1;pointerEvents=0;collapsible=0;recursiveResize=0;shape=mxgraph.aws4.group;grIcon=mxgraph.aws4.group_aws_cloud_alt;strokeColor=#232F3E;fillColor=none;verticalAlign=top;align=left;spacingLeft=30;fontColor=#232F3E;dashed=0;" parent="1" vertex="1">
          <mxGeometry x="34" y="321" width="760" height="766" as="geometry" />
        </mxCell>
        <mxCell id="NpPCWZVfHVP0Qki3NAHJ-60" value="パブリックDNS名" style="rounded=1;whiteSpace=wrap;html=1;" parent="NpPCWZVfHVP0Qki3NAHJ-13" vertex="1">
          <mxGeometry x="58" y="99" width="125" height="27" as="geometry" />
        </mxCell>
        <mxCell id="NpPCWZVfHVP0Qki3NAHJ-2" value="Public subnet" style="points=[[0,0],[0.25,0],[0.5,0],[0.75,0],[1,0],[1,0.25],[1,0.5],[1,0.75],[1,1],[0.75,1],[0.5,1],[0.25,1],[0,1],[0,0.75],[0,0.5],[0,0.25]];outlineConnect=0;gradientColor=none;html=1;whiteSpace=wrap;fontSize=12;fontStyle=0;container=1;pointerEvents=0;collapsible=0;recursiveResize=0;shape=mxgraph.aws4.group;grIcon=mxgraph.aws4.group_security_group;grStroke=0;strokeColor=#248814;fillColor=#E9F3E6;verticalAlign=top;align=left;spacingLeft=30;fontColor=#248814;dashed=0;" parent="NpPCWZVfHVP0Qki3NAHJ-13" vertex="1">
          <mxGeometry x="78" y="148" width="618" height="288" as="geometry" />
        </mxCell>
        <mxCell id="NpPCWZVfHVP0Qki3NAHJ-8" value="&lt;div&gt;&lt;/div&gt;&lt;ul style=&quot;font-size: 14px;&quot;&gt;&lt;li&gt;10.0.1.0/16&amp;nbsp;&lt;/li&gt;&lt;li&gt;0.0.0.0/0&lt;/li&gt;&lt;/ul&gt;" style="text;strokeColor=none;fillColor=none;html=1;whiteSpace=wrap;verticalAlign=middle;overflow=hidden;" parent="NpPCWZVfHVP0Qki3NAHJ-2" vertex="1">
          <mxGeometry x="240" width="130" height="80" as="geometry" />
        </mxCell>
        <mxCell id="NpPCWZVfHVP0Qki3NAHJ-9" value="パブリックルートテーブル" style="text;html=1;strokeColor=none;fillColor=none;align=center;verticalAlign=middle;whiteSpace=wrap;rounded=0;" parent="NpPCWZVfHVP0Qki3NAHJ-2" vertex="1">
          <mxGeometry x="225" y="55" width="145" height="30" as="geometry" />
        </mxCell>
        <mxCell id="SpnF0AT0X0p7F1S629pH-19" value="" style="sketch=0;outlineConnect=0;fontColor=#232F3E;gradientColor=none;fillColor=#8C4FFF;strokeColor=none;dashed=0;verticalLabelPosition=bottom;verticalAlign=top;align=center;html=1;fontSize=12;fontStyle=0;aspect=fixed;pointerEvents=1;shape=mxgraph.aws4.nat_gateway;" vertex="1" parent="NpPCWZVfHVP0Qki3NAHJ-2">
          <mxGeometry x="439" y="107" width="53" height="53" as="geometry" />
        </mxCell>
        <mxCell id="SpnF0AT0X0p7F1S629pH-26" value="デフォルトゲートウェイをNATゲートウェイに向ける" style="shape=callout;whiteSpace=wrap;html=1;perimeter=calloutPerimeter;position2=0.95;size=47;position=0.53;base=14;" vertex="1" parent="NpPCWZVfHVP0Qki3NAHJ-2">
          <mxGeometry x="306" y="190" width="152" height="98" as="geometry" />
        </mxCell>
        <mxCell id="NpPCWZVfHVP0Qki3NAHJ-18" value="&lt;font style=&quot;font-size: 12px;&quot;&gt;パブリックIPアドレス: XXX.XXX.XXX.XXX&lt;br&gt;プライベートIPアドレス: 10.0.1.10&lt;br&gt;&lt;/font&gt;" style="text;html=1;strokeColor=none;fillColor=none;align=center;verticalAlign=middle;whiteSpace=wrap;rounded=0;fontSize=12;" parent="NpPCWZVfHVP0Qki3NAHJ-2" vertex="1">
          <mxGeometry y="220" width="279" height="30" as="geometry" />
        </mxCell>
        <mxCell id="NpPCWZVfHVP0Qki3NAHJ-7" value="&lt;font style=&quot;font-size: 12px;&quot;&gt;(パブリックサブネット: 10.0.1.0/24)&lt;/font&gt;" style="text;html=1;strokeColor=none;fillColor=none;align=center;verticalAlign=middle;whiteSpace=wrap;rounded=0;fontSize=12;" parent="NpPCWZVfHVP0Qki3NAHJ-2" vertex="1">
          <mxGeometry x="12" y="250" width="261.5" height="30" as="geometry" />
        </mxCell>
        <mxCell id="NpPCWZVfHVP0Qki3NAHJ-15" value="EC2 instance contents" style="points=[[0,0],[0.25,0],[0.5,0],[0.75,0],[1,0],[1,0.25],[1,0.5],[1,0.75],[1,1],[0.75,1],[0.5,1],[0.25,1],[0,1],[0,0.75],[0,0.5],[0,0.25]];outlineConnect=0;gradientColor=none;html=1;whiteSpace=wrap;fontSize=12;fontStyle=0;container=1;pointerEvents=0;collapsible=0;recursiveResize=0;shape=mxgraph.aws4.group;grIcon=mxgraph.aws4.group_ec2_instance_contents;strokeColor=#D86613;fillColor=none;verticalAlign=top;align=left;spacingLeft=30;fontColor=#D86613;dashed=0;" parent="NpPCWZVfHVP0Qki3NAHJ-13" vertex="1">
          <mxGeometry x="121" y="221" width="133" height="138" as="geometry" />
        </mxCell>
        <mxCell id="NpPCWZVfHVP0Qki3NAHJ-17" value="SSH" style="rounded=1;whiteSpace=wrap;html=1;" parent="NpPCWZVfHVP0Qki3NAHJ-15" vertex="1">
          <mxGeometry x="24.5" y="36" width="84" height="27" as="geometry" />
        </mxCell>
        <mxCell id="NpPCWZVfHVP0Qki3NAHJ-58" value="Apache" style="rounded=1;whiteSpace=wrap;html=1;" parent="NpPCWZVfHVP0Qki3NAHJ-15" vertex="1">
          <mxGeometry x="24.5" y="70" width="84" height="27" as="geometry" />
        </mxCell>
        <mxCell id="SpnF0AT0X0p7F1S629pH-41" value="WordPress" style="rounded=1;whiteSpace=wrap;html=1;" vertex="1" parent="NpPCWZVfHVP0Qki3NAHJ-15">
          <mxGeometry x="24.5" y="103" width="84" height="27" as="geometry" />
        </mxCell>
        <mxCell id="NpPCWZVfHVP0Qki3NAHJ-6" value="&lt;font style=&quot;font-size: 19px;&quot;&gt;VPC&lt;br&gt;(10.0.0.0/16)&lt;/font&gt;" style="text;html=1;strokeColor=none;fillColor=none;align=center;verticalAlign=middle;whiteSpace=wrap;rounded=0;" parent="NpPCWZVfHVP0Qki3NAHJ-13" vertex="1">
          <mxGeometry x="310.5" y="652" width="130" height="45" as="geometry" />
        </mxCell>
        <mxCell id="SpnF0AT0X0p7F1S629pH-1" value="Private subnet" style="points=[[0,0],[0.25,0],[0.5,0],[0.75,0],[1,0],[1,0.25],[1,0.5],[1,0.75],[1,1],[0.75,1],[0.5,1],[0.25,1],[0,1],[0,0.75],[0,0.5],[0,0.25]];outlineConnect=0;gradientColor=none;html=1;whiteSpace=wrap;fontSize=12;fontStyle=0;container=1;pointerEvents=0;collapsible=0;recursiveResize=0;shape=mxgraph.aws4.group;grIcon=mxgraph.aws4.group_security_group;grStroke=0;strokeColor=#00A4A6;fillColor=#E6F6F7;verticalAlign=top;align=left;spacingLeft=30;fontColor=#147EBA;dashed=0;" vertex="1" parent="NpPCWZVfHVP0Qki3NAHJ-13">
          <mxGeometry x="78" y="458" width="620" height="189" as="geometry" />
        </mxCell>
        <mxCell id="SpnF0AT0X0p7F1S629pH-2" value="EC2 instance contents" style="points=[[0,0],[0.25,0],[0.5,0],[0.75,0],[1,0],[1,0.25],[1,0.5],[1,0.75],[1,1],[0.75,1],[0.5,1],[0.25,1],[0,1],[0,0.75],[0,0.5],[0,0.25]];outlineConnect=0;gradientColor=none;html=1;whiteSpace=wrap;fontSize=12;fontStyle=0;container=1;pointerEvents=0;collapsible=0;recursiveResize=0;shape=mxgraph.aws4.group;grIcon=mxgraph.aws4.group_ec2_instance_contents;strokeColor=#D86613;fillColor=none;verticalAlign=top;align=left;spacingLeft=30;fontColor=#D86613;dashed=0;" vertex="1" parent="SpnF0AT0X0p7F1S629pH-1">
          <mxGeometry x="398" y="29.5" width="130" height="130" as="geometry" />
        </mxCell>
        <mxCell id="SpnF0AT0X0p7F1S629pH-3" value="SSH" style="rounded=1;whiteSpace=wrap;html=1;" vertex="1" parent="SpnF0AT0X0p7F1S629pH-2">
          <mxGeometry x="23" y="39.5" width="84" height="27" as="geometry" />
        </mxCell>
        <mxCell id="SpnF0AT0X0p7F1S629pH-27" value="" style="sketch=0;outlineConnect=0;fontColor=#232F3E;gradientColor=none;fillColor=#C925D1;strokeColor=none;dashed=0;verticalLabelPosition=bottom;verticalAlign=top;align=center;html=1;fontSize=12;fontStyle=0;aspect=fixed;pointerEvents=1;shape=mxgraph.aws4.rds_mariadb_instance;" vertex="1" parent="SpnF0AT0X0p7F1S629pH-2">
          <mxGeometry x="43.5" y="76.5" width="43" height="43" as="geometry" />
        </mxCell>
        <mxCell id="SpnF0AT0X0p7F1S629pH-16" value="踏み台にしてDBサーバーにアクセス" style="rounded=1;whiteSpace=wrap;html=1;" vertex="1" parent="SpnF0AT0X0p7F1S629pH-1">
          <mxGeometry x="230" y="87" width="143" height="60" as="geometry" />
        </mxCell>
        <mxCell id="SpnF0AT0X0p7F1S629pH-17" value="&lt;font style=&quot;font-size: 12px;&quot;&gt;(プライベートサブネット: 10.0.2.0/24)&lt;/font&gt;" style="text;html=1;strokeColor=none;fillColor=none;align=center;verticalAlign=middle;whiteSpace=wrap;rounded=0;fontSize=12;" vertex="1" parent="SpnF0AT0X0p7F1S629pH-1">
          <mxGeometry x="23" y="159" width="327" height="30" as="geometry" />
        </mxCell>
        <mxCell id="SpnF0AT0X0p7F1S629pH-18" value="&lt;font style=&quot;font-size: 12px;&quot;&gt;プライベートIPアドレス: 10.0.2.10&lt;br&gt;&lt;/font&gt;" style="text;html=1;strokeColor=none;fillColor=none;align=center;verticalAlign=middle;whiteSpace=wrap;rounded=0;fontSize=12;" vertex="1" parent="SpnF0AT0X0p7F1S629pH-1">
          <mxGeometry x="293" y="159" width="327" height="30" as="geometry" />
        </mxCell>
        <mxCell id="SpnF0AT0X0p7F1S629pH-22" value="" style="edgeStyle=orthogonalEdgeStyle;html=1;endArrow=none;elbow=vertical;startArrow=block;startFill=1;strokeColor=#545B64;rounded=0;entryX=0.5;entryY=0;entryDx=0;entryDy=0;strokeWidth=3;" edge="1" parent="SpnF0AT0X0p7F1S629pH-1" source="SpnF0AT0X0p7F1S629pH-19">
          <mxGeometry width="100" relative="1" as="geometry">
            <mxPoint x="379" y="7" as="sourcePoint" />
            <mxPoint x="465" y="29.5" as="targetPoint" />
          </mxGeometry>
        </mxCell>
        <mxCell id="SpnF0AT0X0p7F1S629pH-10" value="&lt;font style=&quot;font-size: 15px;&quot;&gt;接続不可&lt;/font&gt;" style="text;html=1;align=center;verticalAlign=middle;whiteSpace=wrap;rounded=0;fillColor=#f8cecc;strokeColor=#b85450;" vertex="1" parent="NpPCWZVfHVP0Qki3NAHJ-13">
          <mxGeometry x="558" y="443" width="77" height="30" as="geometry" />
        </mxCell>
        <mxCell id="SpnF0AT0X0p7F1S629pH-14" value="直接の接続は不可" style="shape=callout;whiteSpace=wrap;html=1;perimeter=calloutPerimeter;position2=0;size=37;position=0.08;" vertex="1" parent="NpPCWZVfHVP0Qki3NAHJ-13">
          <mxGeometry x="607" y="184" width="120" height="80" as="geometry" />
        </mxCell>
        <mxCell id="NpPCWZVfHVP0Qki3NAHJ-59" value="Webサーバー用途として使用するためインストール" style="shape=callout;whiteSpace=wrap;html=1;perimeter=calloutPerimeter;position2=1;base=15;size=35;position=0.82;" parent="NpPCWZVfHVP0Qki3NAHJ-13" vertex="1">
          <mxGeometry x="-11" y="242" width="140" height="88" as="geometry" />
        </mxCell>
        <mxCell id="SpnF0AT0X0p7F1S629pH-15" value="" style="edgeStyle=orthogonalEdgeStyle;html=1;endArrow=block;elbow=vertical;startArrow=none;endFill=1;strokeColor=#545B64;rounded=0;exitX=1;exitY=0.5;exitDx=0;exitDy=0;strokeWidth=3;" edge="1" parent="NpPCWZVfHVP0Qki3NAHJ-13" source="NpPCWZVfHVP0Qki3NAHJ-17" target="SpnF0AT0X0p7F1S629pH-2">
          <mxGeometry width="100" relative="1" as="geometry">
            <mxPoint x="328" y="600" as="sourcePoint" />
            <mxPoint x="428" y="600" as="targetPoint" />
            <Array as="points">
              <mxPoint x="367" y="276" />
              <mxPoint x="367" y="539" />
            </Array>
          </mxGeometry>
        </mxCell>
        <mxCell id="NpPCWZVfHVP0Qki3NAHJ-61" value="SSH接続用とhttp接続用の&lt;br&gt;インバウンドルールの設定&amp;nbsp;" style="shape=callout;whiteSpace=wrap;html=1;perimeter=calloutPerimeter;base=20;size=34;position=0.85;position2=0.99;" parent="NpPCWZVfHVP0Qki3NAHJ-13" vertex="1">
          <mxGeometry x="-130" y="148" width="201" height="77" as="geometry" />
        </mxCell>
        <mxCell id="SpnF0AT0X0p7F1S629pH-25" value="プライベートサブネット内からのアクセスはNATゲートウェイを中継" style="shape=callout;whiteSpace=wrap;html=1;perimeter=calloutPerimeter;position2=0;size=37;position=0.08;" vertex="1" parent="NpPCWZVfHVP0Qki3NAHJ-13">
          <mxGeometry x="406" y="18" width="178" height="98" as="geometry" />
        </mxCell>
        <mxCell id="SpnF0AT0X0p7F1S629pH-5" value="" style="sketch=0;outlineConnect=0;fontColor=#232F3E;gradientColor=none;fillColor=#232F3D;strokeColor=none;dashed=0;verticalLabelPosition=bottom;verticalAlign=top;align=center;html=1;fontSize=12;fontStyle=0;aspect=fixed;pointerEvents=1;shape=mxgraph.aws4.client;" vertex="1" parent="1">
          <mxGeometry x="567" y="37" width="78" height="76" as="geometry" />
        </mxCell>
        <mxCell id="SpnF0AT0X0p7F1S629pH-6" value="ローカル環境" style="text;html=1;align=center;verticalAlign=middle;whiteSpace=wrap;rounded=0;" vertex="1" parent="1">
          <mxGeometry x="558" y="115" width="96" height="30" as="geometry" />
        </mxCell>
        <mxCell id="SpnF0AT0X0p7F1S629pH-7" value="" style="edgeStyle=orthogonalEdgeStyle;html=1;endArrow=block;elbow=vertical;startArrow=block;startFill=1;endFill=1;strokeColor=#545B64;rounded=0;strokeWidth=3;" edge="1" parent="1" source="NpPCWZVfHVP0Qki3NAHJ-4" target="NpPCWZVfHVP0Qki3NAHJ-2">
          <mxGeometry width="100" relative="1" as="geometry">
            <mxPoint x="362" y="932" as="sourcePoint" />
            <mxPoint x="462" y="932" as="targetPoint" />
            <Array as="points">
              <mxPoint x="384" y="441" />
              <mxPoint x="384" y="441" />
            </Array>
          </mxGeometry>
        </mxCell>
        <mxCell id="SpnF0AT0X0p7F1S629pH-8" value="" style="edgeStyle=orthogonalEdgeStyle;html=1;endArrow=block;elbow=vertical;startArrow=block;startFill=1;endFill=1;strokeColor=#545B64;rounded=0;strokeWidth=3;entryX=0.5;entryY=0;entryDx=0;entryDy=0;" edge="1" parent="1" source="SpnF0AT0X0p7F1S629pH-6" target="SpnF0AT0X0p7F1S629pH-10">
          <mxGeometry width="100" relative="1" as="geometry">
            <mxPoint x="630" y="81.5" as="sourcePoint" />
            <mxPoint x="630" y="715" as="targetPoint" />
            <Array as="points">
              <mxPoint x="631" y="447" />
            </Array>
          </mxGeometry>
        </mxCell>
        <mxCell id="SpnF0AT0X0p7F1S629pH-11" value="" style="edgeStyle=orthogonalEdgeStyle;html=1;endArrow=none;elbow=vertical;startArrow=block;startFill=1;strokeColor=#545B64;rounded=0;strokeWidth=3;" edge="1" parent="1" target="SpnF0AT0X0p7F1S629pH-6">
          <mxGeometry width="100" relative="1" as="geometry">
            <mxPoint x="256" y="545" as="sourcePoint" />
            <mxPoint x="785.0079999999998" y="142" as="targetPoint" />
            <Array as="points">
              <mxPoint x="256" y="266" />
              <mxPoint x="606" y="266" />
            </Array>
          </mxGeometry>
        </mxCell>
        <mxCell id="SpnF0AT0X0p7F1S629pH-13" value="SSHで接続" style="shape=callout;whiteSpace=wrap;html=1;perimeter=calloutPerimeter;position2=1;base=14;size=38;position=0.82;" vertex="1" parent="1">
          <mxGeometry x="430" y="185" width="120" height="80" as="geometry" />
        </mxCell>
        <mxCell id="SpnF0AT0X0p7F1S629pH-23" value="" style="edgeStyle=orthogonalEdgeStyle;html=1;endArrow=none;elbow=vertical;startArrow=block;startFill=1;strokeColor=#545B64;rounded=0;strokeWidth=3;" edge="1" parent="1" source="NpPCWZVfHVP0Qki3NAHJ-4" target="SpnF0AT0X0p7F1S629pH-19">
          <mxGeometry width="100" relative="1" as="geometry">
            <mxPoint x="577.1" y="338" as="sourcePoint" />
            <mxPoint x="577.1" y="517.5" as="targetPoint" />
            <Array as="points">
              <mxPoint x="403" y="438" />
              <mxPoint x="578" y="438" />
            </Array>
          </mxGeometry>
        </mxCell>
      </root>
    </mxGraphModel>
  </diagram>
</mxfile>
